<?xml version="1.0" encoding="UTF-8" standalone="no"?>
<svg
   data-name="Layer 1"
   width="819.50836"
   height="539"
   viewBox="0 0 819.50835 539"
   version="1.1"
   id="svg78"
   sodipodi:docname="testt.svg"
   inkscape:version="1.1 (c68e22c387, 2021-05-23)"
   xmlns:inkscape="http://www.inkscape.org/namespaces/inkscape"
   xmlns:sodipodi="http://sodipodi.sourceforge.net/DTD/sodipodi-0.dtd"
   xmlns:xlink="http://www.w3.org/1999/xlink"
   xmlns="http://www.w3.org/2000/svg"
   xmlns:svg="http://www.w3.org/2000/svg"
   xmlns:rdf="http://www.w3.org/1999/02/22-rdf-syntax-ns#"
   xmlns:cc="http://creativecommons.org/ns#"
   xmlns:dc="http://purl.org/dc/elements/1.1/">
  <defs
     id="defs82">
    <linearGradient
       inkscape:collect="always"
       id="linearGradient2937">
      <stop
         style="stop-color:#2dccce;stop-opacity:1;"
         offset="0"
         id="stop2933" />
      <stop
         style="stop-color:#2db131;stop-opacity:0"
         offset="1"
         id="stop2935" />
    </linearGradient>
    <linearGradient
       id="linearGradient2723"
       inkscape:swatch="gradient">
      <stop
         style="stop-color:#008080;stop-opacity:1;"
         offset="0"
         id="stop2719" />
      <stop
         style="stop-color:#008080;stop-opacity:0;"
         offset="1"
         id="stop2721" />
    </linearGradient>
    <linearGradient
       inkscape:collect="always"
       id="linearGradient2281">
      <stop
         style="stop-color:#2db131;stop-opacity:0"
         offset="0"
         id="stop2279" />
      <stop
         style="stop-color:#2dccce;stop-opacity:1;"
         offset="1"
         id="stop2277" />
    </linearGradient>
    <linearGradient
       inkscape:collect="always"
       xlink:href="#linearGradient2281"
       id="linearGradient2283"
       x1="142.44418"
       y1="531.35895"
       x2="493.57416"
       y2="750.06134"
       gradientUnits="userSpaceOnUse"
       gradientTransform="translate(-142.44419,-211.26508)" />
    <linearGradient
       inkscape:collect="always"
       xlink:href="#linearGradient2937"
       id="linearGradient2931"
       x1="604.01178"
       y1="749.75153"
       x2="813.85718"
       y2="389.68192"
       gradientUnits="userSpaceOnUse"
       spreadMethod="pad"
       gradientTransform="translate(-142.44419,-211.26508)" />
  </defs>
  <sodipodi:namedview
     id="namedview80"
     pagecolor="#ffffff"
     bordercolor="#666666"
     borderopacity="1.0"
     inkscape:pageshadow="2"
     inkscape:pageopacity="0.0"
     inkscape:pagecheckerboard="0"
     showgrid="false"
     inkscape:zoom="0.67751297"
     inkscape:cx="701.83158"
     inkscape:cy="342.42887"
     inkscape:window-width="1920"
     inkscape:window-height="1062"
     inkscape:window-x="-8"
     inkscape:window-y="-8"
     inkscape:window-maximized="1"
     inkscape:current-layer="svg78" />
  <title
     id="title2">Bloom</title>
  <circle
     cx="708.36212"
     cy="206.69376"
     r="9.6936197"
     fill="#ff6584"
     id="circle6"
     style="fill:#f74a65;fill-opacity:1" />
  <rect
     x="148.43298"
     y="715.94659"
     width="110.37066"
     height="2.9665101"
     transform="rotate(-48.9494)"
     fill="#3f3d56"
     id="rect8" />
  <circle
     cx="710.99866"
     cy="275.9826"
     r="15.60802"
     fill="#3f3d56"
     id="circle10" />
  <path
     d="m 666.3256,327.28151 c 0,0 29.81274,-37.62973 -8.31873,-63.44438"
     fill="#3f3d56"
     id="path12" />
  <path
     d="m 179.85501,393.35731 c 53.6896,99.56973 167.63821,142.31286 167.63821,142.31286 0,0 26.90056,-118.69128 -26.789,-218.261 -53.68956,-99.56972 -167.63826,-142.31286 -167.63826,-142.31286 0,0 -26.90056,118.69128 26.78905,218.261 z"
     fill="#3f3d56"
     id="path14" />
  <path
     d="m 216.75791,360.59958 c 96.93185,58.3174 134.26337,174.15185 134.26337,174.15185 0,0 -119.82606,21.28324 -216.75791,-37.03417 C 37.33152,439.39985 0,323.56541 0,323.56541 c 0,0 119.82606,-21.28324 216.75791,37.03417 z"
     fill="#6c63ff"
     id="path16"
     style="fill:url(#linearGradient2283);fill-opacity:1" />
  <path
     d="m 602.43136,361.42384 c -97.44388,57.45776 -135.79849,172.95747 -135.79849,172.95747 0,0 119.63312,22.34228 217.077,-35.11549 97.44388,-57.45777 135.7985,-172.95747 135.7985,-172.95747 0,0 -119.63313,-22.34228 -217.07701,35.11549 z"
     fill="#3f3d56"
     id="path18" />
  <path
     d="m 636.57626,397.04713 c -54.5682,99.09094 -168.89045,140.82453 -168.89045,140.82453 0,0 -25.84968,-118.92458 28.71852,-218.01552 54.5682,-99.09094 168.89048,-140.82453 168.89048,-140.82453 0,0 25.84965,118.92458 -28.71855,218.01552 z"
     fill="#6c63ff"
     id="path20"
     style="mix-blend-mode:normal;fill:url(#linearGradient2931);fill-opacity:1;fill-rule:nonzero" />
  <path
     d="M 438.54681,124.31497 A 30.28312,30.28312 0 0 1 434.7847,83.485071 c -0.60975,0.57174 -1.20581,1.16536 -1.7764,1.79643 a 30.2867,30.2867 0 0 0 44.93083,40.624589 c 0.57059,-0.63107 1.10136,-1.28373 1.609,-1.94781 a 30.28311,30.28311 0 0 1 -41.00132,0.35669 z"
     fill="#2f2e41"
     id="path22" />
  <circle
     cx="411.11356"
     cy="83.43454"
     r="62.376179"
     fill="#2f2e41"
     id="circle24" />
  <path
     d="m 393.97903,163.5812 1.84844,-4.80595 -33.64166,28.466 -40.66568,22.92067 c 0,0 -20.70254,-79.85266 -22.1813,-81.33142 -1.47876,-1.47876 -28.0963,-57.671359 -39.92633,-31.053809 -11.83003,26.617549 22.92068,42.144459 22.92068,42.144459 0,0 1.10906,97.228 36.59913,96.48864 35.49007,-0.73936 79.483,-32.90226 80.22235,-35.85977 0.73935,-2.95751 -5.17563,-36.96882 -5.17563,-36.96882 z"
     fill="#ffb8b8"
     id="path26" />
  <circle
     cx="403.59091"
     cy="110.34608"
     r="36.96883"
     fill="#ffb8b8"
     id="circle28" />
  <path
     d="m 410.98469,136.96365 c 0,0 9.61189,12.5694 6.65439,14.04815 -2.9575,1.47875 -19.96317,2.21813 -30.31444,14.78753 -10.35127,12.5694 12.5694,44.36259 12.5694,44.36259 l 87.24643,-58.41074 -35.49007,-11.83 c 0,0 -24.39943,-13.30878 -23.66005,-27.35693 z"
     fill="#ffb8b8"
     id="path30" />
  <path
     d="m 528.74843,538.99999 h -98.51 c -5.58,-40.8 -8.16,-78.19 -8.16,-78.19 0,0 -1.44,37.61 -5.27,78.19 h -126.56 c 17.94,-120.16 102.99,-250.46 102.99,-250.46 0,0 0.74,-17.75 2.96,-20.71 2.22,-2.95 -12.57,-3.68994 -19.23,-25.87 -4.06,-13.54 -0.41,-22.4 3.06,-27.24 a 19.57194,19.57194 0 0 1 4.34,-4.56 c 0,0 1.48,-15.52 0,-17.74 -0.19,-0.29 1.26995,-1.31 3.97,-2.86 2.25,-1.3 5.36,-2.97 9.08,-4.89 21.31,-11.05 62.56,-30.6 76.69,-37.26 3.1,-1.47 4.9,-2.31 4.9,-2.31 l 25.14,8.87 c 19.96,6.65 19.96,48.8 19.96,48.8 l -1.13,1.72 -30.17,45.7 -17.5,26.51995 c 4.44,2.95 -4.43,21.44 -4.43,21.44 0,0 12.63995,18.16 22.92,45.88 a 208.66964,208.66964 0 0 1 11.81,47.85 163.68689,163.68689 0 0 1 0.76,31.96 c -2.73999,35.61998 9.44,78.91005 22.38,115.16005 z"
     fill="#2f2e41"
     id="path32" />
  <path
     d="m 504.50256,158.32778 a 6.45876,6.45876 0 0 0 -9.24709,3.45812 c -2.22637,6.12192 -4.48282,18.88405 -3.67874,45.41851 1.47875,48.79885 2.21813,82.0708 2.21813,82.0708 v 73.93765 c 0,0 -32.53257,70.98014 -14.78753,70.98014 17.74504,0 30.31448,-56.19261 30.31448,-56.19261 0,0 16.26629,-85.0283 11.09065,-99.81583 -5e-5,0 14.59381,-102.15702 -15.9099,-119.85678 z"
     fill="#ffb8b8"
     id="path34" />
  <ellipse
     cx="399.25174"
     cy="77.542526"
     rx="31.72892"
     ry="21.63336"
     fill="#2f2e41"
     id="ellipse36" />
  <circle
     cx="449.63824"
     cy="30.286699"
     r="30.286699"
     fill="#2f2e41"
     id="circle38" />
  <path
     d="m 471.27161,51.920051 a 30.28313,30.28313 0 0 1 -30.1738,-27.76281 c -0.0688,0.833 -0.11285,1.67312 -0.11285,2.52389 a 30.2867,30.2867 0 0 0 60.5734,0 c 0,-0.85077 -0.044,-1.69085 -0.11285,-2.52389 a 30.28313,30.28313 0 0 1 -30.1739,27.76281 z"
     fill="#2f2e41"
     id="path40" />
  <ellipse
     cx="403.54764"
     cy="197.29527"
     rx="2.5878201"
     ry="5.91501"
     transform="rotate(-13.43351)"
     fill="#ffb8b8"
     id="ellipse42" />
  <circle
     cx="439.45068"
     cy="101.84326"
     r="1.47875"
     fill="#f2f2f2"
     id="circle44" />
  <path
     d="m 87.91841,228.49999 a 12,12 0 1 1 12,-12 12.01344,12.01344 0 0 1 -12,12 z m 0,-22 a 10,10 0 1 0 10,10 10.01146,10.01146 0 0 0 -10,-10 z"
     fill="#3f3d56"
     id="path46"
     style="fill:#f74a65;fill-opacity:1" />
  <path
     d="m 607.41841,140.99999 h -26 v -26 h 26 z m -24,-2 h 22 v -22 h -22 z"
     fill="#3f3d56"
     id="path48"
     style="fill:#f74a65;fill-opacity:1" />
  <metadata
     id="metadata4351">
    <rdf:RDF>
      <cc:Work
         rdf:about="">
        <dc:title>Bloom</dc:title>
      </cc:Work>
    </rdf:RDF>
  </metadata>
</svg>
